<?xml version="1.0" encoding="UTF-8"?>
<svg data-name="Layer 1" viewBox="0 0 650 512" xmlns="http://www.w3.org/2000/svg">
<circle cx="337.97" cy="256" r="167.7" fill="#dbe8ec"/>
<path d="m564.58 220.9v-18.11a13.021 13.021 0 0 0-13.021-13.021h-45.959a13.021 13.021 0 0 1-13.021-13.021v-18.11a13.021 13.021 0 0 1 13.021-13.021h1.4511a13.021 13.021 0 0 0 13.021-13.021v-18.11a13.021 13.021 0 0 0-13.021-13.021h-333.92a13.021 13.021 0 0 0-13.021 13.021v18.11a13.021 13.021 0 0 0 13.021 13.021 13.021 13.021 0 0 1 13.021 13.021v18.11a13.021 13.021 0 0 1-13.021 13.021h-50.353a13.021 13.021 0 0 0-13.021 13.021v18.11a13.021 13.021 0 0 0 13.021 13.021h19.758a13.021 13.021 0 0 1 13.021 13.021v18.11a13.021 13.021 0 0 1-13.021 13.021h-0.04775a13.021 13.021 0 0 0-13.021 13.021v18.11a13.021 13.021 0 0 0 13.021 13.021h2.8585a13.021 13.021 0 0 1 13.021 13.021v18.11a13.021 13.021 0 0 1-13.021 13.021h-46.913a13.021 13.021 0 0 0-13.021 13.021v18.11a13.021 13.021 0 0 0 13.021 13.021h415.61a13.021 13.021 0 0 0 13.021-13.021v-18.11a13.021 13.021 0 0 0-13.021-13.021h-11.29a13.021 13.021 0 0 1-13.021-13.021v-18.11a13.021 13.021 0 0 1 13.021-13.021h26.62a13.021 13.021 0 0 0 13.021-13.021v-18.11a13.021 13.021 0 0 0-13.021-13.021h-8.0753a13.021 13.021 0 0 1-13.021-13.021v-18.11a13.021 13.021 0 0 1 13.021-13.021h30.263a13.021 13.021 0 0 0 13.021-13.021z" fill="#dbe8ec"/>
<line x1="384.78" x2="417.08" y1="92.159" y2="92.159" fill="none" stroke="#b9d4db" stroke-linecap="round" stroke-miterlimit="10" stroke-width="3"/>
<line x1="384.78" x2="417.08" y1="101.47" y2="101.47" fill="none" stroke="#b9d4db" stroke-linecap="round" stroke-miterlimit="10" stroke-width="3"/>
<line x1="384.78" x2="417.08" y1="110.78" y2="110.78" fill="none" stroke="#b9d4db" stroke-linecap="round" stroke-miterlimit="10" stroke-width="3"/>
<line x1="119.15" x2="151.46" y1="289.91" y2="289.91" fill="none" stroke="#b9d4db" stroke-linecap="round" stroke-miterlimit="10" stroke-width="3"/>
<line x1="119.15" x2="151.46" y1="299.22" y2="299.22" fill="none" stroke="#b9d4db" stroke-linecap="round" stroke-miterlimit="10" stroke-width="3"/>
<line x1="119.15" x2="151.46" y1="308.53" y2="308.53" fill="none" stroke="#b9d4db" stroke-linecap="round" stroke-miterlimit="10" stroke-width="3"/>
<line x1="505.66" x2="537.97" y1="375.24" y2="375.24" fill="none" stroke="#b9d4db" stroke-linecap="round" stroke-miterlimit="10" stroke-width="3"/>
<line x1="505.66" x2="537.97" y1="384.55" y2="384.55" fill="none" stroke="#b9d4db" stroke-linecap="round" stroke-miterlimit="10" stroke-width="3"/>
<line x1="505.66" x2="537.97" y1="393.86" y2="393.86" fill="none" stroke="#b9d4db" stroke-linecap="round" stroke-miterlimit="10" stroke-width="3"/>
<circle cx="546.78" cy="202.35" r="13.807" fill="#b9d4db"/>
<circle cx="510.34" cy="212.31" r="7.159" fill="#b9d4db"/>
<circle cx="528.52" cy="168.56" r="10.228" fill="#b9d4db"/>
<circle cx="164.38" cy="389.4" r="16.428" fill="#b9d4db"/>
<circle cx="131.9" cy="397.6" r="8.557" fill="#b9d4db"/>
<circle cx="121.85" cy="369.19" r="4.936" fill="#b9d4db"/>
<circle cx="146.32" cy="356.55" r="11.833" fill="#b9d4db"/>
<circle cx="250.43" cy="135.46" r="16.428" fill="#b9d4db"/>
<circle cx="251.1" cy="101.97" r="8.557" fill="#b9d4db"/>
<circle cx="308.09" cy="106.97" r="7.406" fill="#b9d4db"/>
<circle cx="281.15" cy="99.771" r="4.936" fill="#b9d4db"/>
<circle cx="286.88" cy="126.71" r="11.833" fill="#b9d4db"/>
<polygon points="483.96 291.56 374.75 350.39 374.75 216.95 483.96 182.86" fill="#e06714"/>
<path d="m374.75 216.95-128.92-13.042-26.422-38.981a3 3 0 0 1 2.4833-4.6832h121.44a3 3 0 0 1 2.6596 1.6119z" fill="#f9ae2b"/>
<path d="m245.83 337.35-45.024-9.3683a3 3 0 0 1-2.3889-2.9371v-127.31a3 3 0 0 1 3.6111-2.9371l43.802 9.114zm172.39 27.512-43.465-14.47v-133.44l45.361 15.101a3 3 0 0 1 2.0524 2.8464v127.12a3 3 0 0 1-3.9476 2.8464z" fill="#f9ae2b"/>
<polygon points="374.75 350.39 245.83 337.35 245.83 203.91 374.75 216.95" fill="#409cb5"/>
<path d="m341.97 386.09-131.54-5.2487 35.406-43.496 128.92 13.042-30.408 34.683a3 3 0 0 1-2.3754 1.0199z" fill="#f9ae2b"/>
<polygon points="374.75 216.95 483.96 182.86 350.47 170.43" fill="#ee781d"/>
<polygon points="245.83 337.35 374.75 277.15 374.75 216.95 245.83 203.91" fill="#25788e"/>
<path d="m253.56 293.86s14.085-6.1621 17.826-1.7606 12.104 6.3821 12.104 6.3821l7.2624-12.324 19.807 9.2431 10.784 14.745-7.0424 17.386s-14.305-0.22007-21.127 2.6409-24.648 3.081-24.648 3.081l-8.1427-15.625s-10.344-15.185-6.8223-23.768z" fill="#dbe8ec"/>
<path d="m283.49 298.48c1.3546 1.2001 2.6557 2.445 3.9308 3.7114 1.286 1.2574 2.5238 2.555 3.7663 3.8489 1.2159 1.316 2.4643 2.6049 3.6434 3.9517 1.1895 1.338 2.4005 2.6582 3.5498 4.0299l-2.5353 1.254c-0.575-2.3926-1.1426-4.7869-1.6511-7.1946-0.51942-2.4052-0.96371-4.8273-1.4294-7.2446-0.84754-4.8536-1.638-9.7201-2.0121-14.681 1.7965 4.639 3.1766 9.3722 4.4996 14.118 0.61958 2.3826 1.2606 4.7602 1.8265 7.1549 0.57672 2.3922 1.0945 4.7978 1.6048 7.2051l0.0044 0.02075a1.4545 1.4545 0 0 1-2.5398 1.2334c-1.1464-1.3743-2.2311-2.7999-3.3373-4.2076-1.1166-1.399-2.1639-2.8561-3.2437-4.2859-1.0532-1.452-2.111-2.9003-3.1208-4.3887-1.0205-1.4793-2.0151-2.9803-2.9563-4.5261z" fill="#bad5db"/>
<path d="m310.56 295.4c-0.84011 1.8118-1.7853 3.5521-2.7275 5.2944-0.9668 1.7256-1.9399 3.4469-2.9665 5.1318-0.99682 1.7052-2.0694 3.3589-3.1157 5.0304-1.0545 1.6659-2.1684 3.2915-3.2497 4.9393l-1.5281-2.3047c2.0044-0.4115 4.0164-0.78516 6.0316-1.1425 2.0235-0.31616 4.0349-0.69226 6.0683-0.95911 2.0265-0.30078 4.0642-0.546 6.1049-0.77563 2.0479-0.19385 4.0928-0.40271 6.1662-0.46912-1.9397 0.73535-3.9078 1.3284-5.873 1.9364-1.9723 0.57239-3.9477 1.1289-5.9342 1.63-1.9797 0.535-3.9813 0.96069-5.9709 1.4465-1.9978 0.44446-3.9989 0.87268-6.0075 1.2631l-0.03152 0.00623a1.484 1.484 0 0 1-1.4966-2.311c1.1345-1.6116 2.2364-3.2452 3.3977-4.8386 1.1695-1.5879 2.3127-3.1935 3.5316-4.7477 1.1892-1.5743 2.4319-3.1124 3.6809-4.6461 1.2736-1.5171 2.5442-3.0362 3.9199-4.4838z" fill="#bad5db"/>
<path d="m314.3 327.53c-1.6248-0.77-3.1616-1.659-4.7071-2.5365-1.5256-0.90442-3.0377-1.827-4.519-2.7915-2.9809-1.9039-5.8659-3.9379-8.6978-6.0436l2.1664-0.428c-1.7118 2.7898-3.486 5.5419-5.3893 8.2157-0.93138 1.3492-1.92 2.6637-2.9132 3.9756-1.0168 1.2974-2.0336 2.5948-3.1545 3.8292 0.5755-1.5649 1.2552-3.0666 1.9347-4.5685 0.70329-1.4874 1.411-2.9722 2.176-4.4222 1.4894-2.9246 3.108-5.771 4.789-8.5796a1.4876 1.4876 0 0 1 2.0405-0.51245l0.1133 0.075 0.01284 0.00952c2.8467 2.0857 5.6404 4.2433 8.3382 6.5309 1.358 1.1314 2.6853 2.3044 3.999 3.4958 1.294 1.2182 2.5964 2.4249 3.811 3.7506z" fill="#bad5db"/>
<path d="m253.56 293.86c7.6031 2.8551 15.019 6.0977 22.408 9.3962 3.6775 1.6844 7.3634 3.3518 11.007 5.1062 3.6633 1.714 7.2924 3.4988 10.92 5.287l0.01108 0.00549a1.4514 1.4514 0 0 1 0.13747 2.5264c-2.3952 1.5242-4.8407 2.9695-7.2614 4.4537-2.4164 1.491-4.8851 2.8998-7.3251 4.3536-2.464 1.4163-4.9172 2.8495-7.4102 4.22q-3.7221 2.0834-7.5219 4.0446 3.3818-2.6179 6.8476-5.1036c2.2968-1.6788 4.6335-3.2952 6.9594-4.9282 2.3499-1.5955 4.671-3.2362 7.0444-4.7946 2.3691-1.5653 4.7135-3.1693 7.1082-4.6945l0.14851 2.5316c-3.6566-1.7279-7.3115-3.4592-10.932-5.2612-3.6402-1.7618-7.2384-3.6106-10.845-5.4423-7.179-3.7337-14.331-7.5234-21.296-11.7z" fill="#bad5db"/>
<path d="m259.49 316.22a43.3 43.3 0 0 0 7.3843-3.6245 14.867 14.867 0 0 0 5.2729-5.2894 12.243 12.243 0 0 0 1.143-7.2229 42.463 42.463 0 0 0-1.8974-7.9858 18.612 18.612 0 0 1 4.2137 7.5398 12.25 12.25 0 0 1-0.81392 9.0817 13.855 13.855 0 0 1-6.821 5.9557 18.881 18.881 0 0 1-8.4816 1.5455zm22.493-8.6453a33.235 33.235 0 0 1-1.0543 6.0673 56.083 56.083 0 0 1-1.8497 5.764 55.108 55.108 0 0 1-2.4517 5.5347 32.835 32.835 0 0 1-3.2548 5.2286 32.829 32.829 0 0 1 1.0505-6.0687 55.094 55.094 0 0 1 1.8535-5.7626 56.065 56.065 0 0 1 2.4555-5.5332 33.233 33.233 0 0 1 3.251-5.2301z" fill="#bad5db"/>
<path d="m252.83 366.41s-10.729 11.011-15.852 8.3411-13.616-1.3566-13.616-1.3566l-2.0893 14.151-21.829-1.1077-15.541-9.6013-0.01991-18.758s13.336-5.1807 18.579-10.399 21.676-12.132 21.676-12.132l13.425 11.411s15.299 10.175 15.267 19.452z" fill="#c0d8dd"/>
<path d="m223.36 373.4c-3.3259-1.3684-6.5757-2.88-9.8116-4.4176-1.608-0.78772-3.2292-1.5504-4.8222-2.3662-1.5972-0.808-3.2032-1.5994-4.784-2.4381l1.2512-1.4108c2.8625 4.0033 5.6272 8.0747 8.3383 12.183 2.6789 4.1312 5.3257 8.2847 7.739 12.601-3.2111-3.7605-6.1887-7.6836-9.1343-11.629-2.9133-3.9679-5.773-7.9732-8.535-12.047l-0.00719-0.0105a0.96977 0.96977 0 0 1 1.2584-1.4003c1.5796 0.84106 3.1341 1.7292 4.6973 2.6012 1.5675 0.86377 3.1067 1.7809 4.6591 2.673 3.0849 1.8218 6.156 3.6698 9.151 5.6607z" fill="#9fc6cc"/>
<path d="m199.44 386.44c0.42849-3.9388 1.0458-7.8373 1.7263-11.722 0.66993-3.8871 1.4494-7.7507 2.2556-11.609l1.5221 1.0399-5.1467 3.3461c-1.7398 1.0785-3.4571 2.1913-5.2153 3.2418-1.7455 1.0698-3.5118 2.1083-5.284 3.1378-1.7855 1.0093-3.5656 2.0267-5.3988 2.9639 1.5829-1.3164 3.2189-2.5524 4.8494-3.7966 1.6439-1.2239 3.2937-2.439 4.9642-3.6226 1.6578-1.2029 3.3566-2.3436 5.0328-3.5184l5.1015-3.4146a0.99324 0.99324 0 0 1 1.5222 1.04c-0.84564 3.8495-1.7181 7.6932-2.7001 11.513-0.97135 3.8225-2.0059 7.6315-3.2294 11.4z" fill="#9fc6cc"/>
<path d="m183.88 358.08c1.7666 0.21338 3.5089 0.52222 5.2535 0.8219 1.7391 0.32117 3.4744 0.65711 5.2012 1.0265 3.4571 0.7251 6.8891 1.5485 10.307 2.426l-1.2266 0.8053c0.28153-1.6123 0.53048-3.2299 0.83875-4.8379 0.305-1.6086 0.59732-3.2192 0.943-4.8213 0.66589-3.2081 1.3925-6.4066 2.307-9.575-0.12141 3.2954-0.43072 6.5608-0.80072 9.8164-0.17228 1.6298-0.39787 3.2511-0.61085 4.8744-0.20968 1.6239-0.47867 3.2383-0.71509 4.8578a0.98116 0.98116 0 0 1-1.1126 0.8291l-0.09845-0.01941-0.01587-0.00415c-3.4206-0.86816-6.8273-1.7905-10.209-2.811-1.6926-0.50342-3.3766-1.0404-5.0569-1.592-1.6748-0.57324-3.3519-1.1372-5.0047-1.7966z" fill="#9fc6cc"/>
<path d="m252.83 366.41c-4.0516-0.0116-8.0967-0.12549-12.143-0.22717-4.0448-0.11914-8.0861-0.29139-12.127-0.46875q-12.12-0.58264-24.223-1.4322l-0.00726-6.1e-4a0.96771 0.96771 0 0 1-0.71985-1.526c1.6452-2.3138 3.3412-4.5916 5.0121-6.887 1.6665-2.2987 3.3861-4.5596 5.0766-6.8413 1.7173-2.2624 3.4127-4.5406 5.1685-6.7758 1.7515-2.2383 3.4738-4.4973 5.2699-6.7039-1.4936 2.4215-3.0611 4.7906-4.5993 7.1804-1.5339 2.3929-3.1282 4.7429-4.7006 7.1085-1.5993 2.3464-3.1694 4.7136-4.7926 7.0431-1.6188 2.3325-3.2125 4.683-4.857 6.9972l-0.727-1.5264q12.113 0.68445 24.208 1.6618c4.0308 0.33838 8.0612 0.68188 12.088 1.0784 4.0259 0.41397 8.0526 0.81582 12.073 1.3197z" fill="#9fc6cc"/>
<path d="m238.93 347.93a36.164 36.164 0 0 0-5.7815 5.8813 14.522 14.522 0 0 0-3.0868 7.0891 10.01 10.01 0 0 0 0.30765 3.7798 13.716 13.716 0 0 0 1.5149 3.6118 35.608 35.608 0 0 0 5.0986 6.4668 20.255 20.255 0 0 1-6.4073-5.6166 12.221 12.221 0 0 1-2.5017-8.4504 13.964 13.964 0 0 1 3.8848-7.8811 20.515 20.515 0 0 1 6.9715-4.8807zm-17.584 16.476a46.845 46.845 0 0 1-0.90911-6.0265c-0.19024-2.0112-0.31187-4.024-0.35424-6.0386-0.04927-2.0144-0.01363-4.0306 0.08736-6.0482a46.329 46.329 0 0 1 0.64822-6.0606 46.326 46.326 0 0 1 0.91211 6.0265c0.189 2.0112 0.31256 4.024 0.35124 6.0386 0.0456 2.0145 0.01192 4.0306-0.09035 6.0483a46.846 46.846 0 0 1-0.64523 6.0604z" fill="#9fc6cc"/>
</svg>
